<svg preserveAspectRatio="none" width="100%" height="100%" overflow="visible" style="display: block;" viewBox="0 0 269.556 35.4583" fill="none" xmlns="http://www.w3.org/2000/svg">
<g id="Layer_1-2">
<path id="Vector" d="M82.442 1.13682H76.1914V34.583H82.442V1.13682Z" fill="var(--fill-0, white)"/>
<path id="Vector_2" d="M144.616 24.7366H135.146V34.5835H128.848V1.13728C134.104 1.13728 139.36 1.08994 144.616 1.08994C160.953 1.08994 161 24.7366 144.616 24.7366ZM135.146 18.9611H144.616C152.69 18.9611 152.643 7.12588 144.616 7.12588H135.146V18.9611Z" fill="var(--fill-0, white)"/>
<path id="Vector_3" d="M189.673 28.2867H172.176L169.311 34.583H162.469L177.503 1.13682H184.393L199.404 34.583H192.514L189.697 28.2867H189.673ZM180.936 8.16691L174.733 22.3928H187.163L180.96 8.16691H180.936Z" fill="var(--fill-0, white)"/>
<path id="Vector_4" d="M227.152 9.20787C226.015 7.29057 222.842 5.49162 219.22 5.49162C214.532 5.49162 212.283 7.45626 212.283 9.94165C212.283 12.8531 215.716 13.6579 219.741 14.155C226.725 15.0071 233.213 16.8297 233.213 24.8066C233.213 32.2628 226.607 35.4583 219.173 35.4583C212.33 35.4583 207.074 33.3516 204.588 27.2447L209.844 24.5226C211.336 28.1915 215.195 29.8247 219.267 29.8247C223.34 29.8247 226.962 28.4282 226.962 24.8066C226.962 21.6585 223.671 20.3566 219.22 19.8832C212.377 19.0784 206.08 17.2558 206.08 9.75228C206.08 2.86421 212.875 0.0474388 219.031 9.80792e-05C224.239 9.80792e-05 229.638 1.49133 232.171 6.65147L227.152 9.23154V9.20787Z" fill="var(--fill-0, white)"/>
<path id="Vector_5" d="M263.495 9.20777C262.359 7.29047 259.186 5.49152 255.563 5.49152C250.876 5.49152 248.626 7.45616 248.626 9.94155C248.626 12.853 252.059 13.6578 256.084 14.1549C263.069 15.007 269.556 16.8296 269.556 24.8065C269.556 32.2627 262.951 35.4582 255.516 35.4582C248.674 35.4582 243.417 33.3515 240.931 27.2446L246.188 24.5225C247.679 28.1914 251.538 29.8246 255.611 29.8246C259.683 29.8246 263.306 28.4281 263.306 24.8065C263.306 21.6584 260.015 20.3565 255.563 19.8831C248.721 19.0783 242.423 17.2557 242.423 9.75218C242.423 2.86411 249.218 0.0473407 255.374 0C260.583 0 265.981 1.49123 268.515 6.65137L263.495 9.23144V9.20777Z" fill="var(--fill-0, white)"/>
<path id="Vector_6" d="M42.5 1.18369V7.26697H48.8216H66.5316V1.18369H42.5Z" fill="var(--fill-0, white)"/>
<path id="Vector_7" d="M48.7979 9.7501L42.5 13.3717V34.5803H48.7979V22.2007H65.5846V16.3778H48.7979V9.7501Z" fill="var(--fill-0, white)"/>
<path id="Vector_8" d="M103.324 13.3282V34.5842H109.646V9.754L103.324 13.3282Z" fill="var(--fill-0, white)"/>
<path id="Vector_9" d="M120.229 1.13682H92.7168V7.19643H120.229V1.13682Z" fill="var(--fill-0, white)"/>
<path id="Vector_10" d="M12.1465 7.21885V13.4915V19.3617V19.7641V24.8059V25.445V28.4748H18.2077V25.445V24.8059V19.7641V19.3617V13.4915V7.21885H12.1465Z" fill="var(--fill-0, white)"/>
<path id="Vector_11" d="M0 19.3605V22.3903H6.06118V19.3605V13.3009H0V19.3605Z" fill="var(--fill-0, white)"/>
<path id="Vector_12" d="M24.291 1.16025V7.21986V12.7114V13.3031V18.9604V24.6412V25.1857V30.7009V31.4346V34.5591H30.3522V31.4346V30.7009V25.1857V24.6412V18.9604V13.3031V12.7114V7.21986V1.16025H24.291Z" fill="var(--fill-0, white)"/>
</g>
</svg>
